<svg width="120" height="38" viewBox="0 0 120 38" fill="none" xmlns="http://www.w3.org/2000/svg">
<g clip-path="url(#clip0_5001_4973)">
<path d="M70.62 15.9117H72.6731V19.0752H70.62V15.9117ZM68.2589 24.15H70.928L70.62 23.5341V21.1327H71.3407L72.2009 23.4827L72.1599 24.1479H74.9316L74.3875 23.3611L73.4595 20.9597L74.7242 19.691V15.2918L73.287 13.8501H68.2568L68.5648 14.4659V23.5321L68.2568 24.1479L68.2589 24.15Z" fill="white"/>
<path d="M106.34 15.9116H108.599V22.0903H106.34V15.9116ZM109.215 24.1499L110.652 22.7082V15.2937L109.215 13.8521H105.724L104.287 15.2937V22.7082L105.724 24.1499H109.215Z" fill="white"/>
<path d="M58.4058 24.15H61.0748L60.7669 23.5341V19.8022H61.0995L62.9535 23.6454L62.9227 24.15H65.8997L65.2735 23.357L62.8734 18.5068L65.0949 14.4844L65.5918 13.8501H62.9227L62.9535 14.3423L61.1241 17.7427H60.7669V14.4659L61.0748 13.8501H58.4058L58.7137 14.4659V23.5321L58.4058 24.15Z" fill="white"/>
<path d="M81.2962 16.3257L82.2858 20.5087H80.3087L81.2962 16.3257ZM77.1899 24.15H79.7564L79.627 23.388L79.8652 22.3829H82.7293L82.9675 23.388L82.8361 24.15H85.4025L85.1418 23.5836L82.7149 14.4515L82.9387 13.8542H79.6537L79.8775 14.4515L77.4507 23.5836L77.1899 24.15Z" fill="white"/>
<path d="M113.02 24.15H115.689L115.381 23.5341V18.4058L117.536 24.15H120L119.692 23.5341V14.4659L120 13.8501H117.331L117.639 14.4659V19.5963L115.483 13.8501H113.02L113.328 14.4659V23.5321L113.02 24.15Z" fill="white"/>
<path d="M101.413 15.9117L102.029 16.2207V13.8501H95.4629V16.2207L96.0788 15.9117H97.7172V23.5341L97.4093 24.15H100.078L99.7704 23.5341V15.9117H101.413Z" fill="white"/>
<path d="M87.353 24.15H90.0221L89.7141 23.5341V20.0494H91.7673L92.3832 20.3604V17.6809L91.7673 17.9898H89.7141V15.9117H92.7959L93.4098 16.2207V13.8501H87.353L87.6631 14.4659V23.5321L87.353 24.15Z" fill="white"/>
<g opacity="0.3">
<path opacity="0.3" d="M47.1504 13.8501V24.15" stroke="white" stroke-width="2"/>
</g>
<path d="M21.3968 37.2605C31.4501 35.6235 38.277 26.1212 36.6451 16.0365C35.0132 5.95183 25.5405 -0.8964 15.4872 0.740578C5.43397 2.37756 -1.39292 11.8799 0.238954 21.9646C1.87083 32.0493 11.3435 38.8975 21.3968 37.2605Z" fill="white"/>
<path d="M19.078 27.1548C17.8564 27.1548 16.8647 26.1579 16.8647 24.9346C16.8647 23.7112 17.8585 22.7144 19.078 22.7144C20.2976 22.7144 21.2913 23.7112 21.2913 24.9346C21.2913 26.1579 20.2976 27.1548 19.078 27.1548ZM19.078 23.7215C18.4108 23.7215 17.8687 24.2652 17.8687 24.9346C17.8687 25.6039 18.4108 26.1476 19.078 26.1476C19.7453 26.1476 20.2873 25.6039 20.2873 24.9346C20.2873 24.2652 19.7453 23.7215 19.078 23.7215Z" fill="#1D1D1B"/>
<path d="M26.8472 20.6938C26.5701 20.6938 26.3442 20.9183 26.3442 21.1984V23.8862C26.3442 24.2136 26.0794 24.4793 25.7529 24.4793C25.4265 24.4793 25.1493 24.2136 25.1493 23.8862V21.7483C25.1493 21.4703 24.9255 21.2437 24.6463 21.2437C24.367 21.2437 24.1432 21.4682 24.1432 21.7483V24.4361C24.1432 24.7635 23.8784 25.0292 23.5519 25.0292C23.2255 25.0292 22.9606 24.7635 22.9606 24.4361V22.2879C22.9606 22.0099 22.7368 21.7834 22.4576 21.7834C22.1784 21.7834 21.9546 22.0078 21.9546 22.2879V24.4361C21.9546 25.3196 22.6711 26.0363 23.5499 26.0363C24.135 26.0363 24.6401 25.7171 24.9193 25.2455C25.1616 25.3958 25.4449 25.4864 25.7508 25.4864C26.6316 25.4864 27.3461 24.7677 27.3461 23.8862V21.1984C27.3461 20.9204 27.1223 20.6938 26.8431 20.6938H26.8472Z" fill="#1D1D1B"/>
<path d="M30.2736 12.6946C29.9964 12.4536 29.5796 12.3135 28.9206 12.2394C28.59 12.2023 28.1979 12.1014 28.1938 11.8254C28.1938 11.7575 28.2266 11.4197 28.9288 11.3661C29.3353 11.3332 29.555 11.4362 29.8281 11.5659L29.8876 11.5947C29.9903 11.6421 30.2284 11.6977 30.3865 11.5556C30.483 11.4691 30.5323 11.3517 30.5282 11.224C30.522 11.0757 30.444 10.9336 30.3147 10.8307C30.0991 10.6618 29.6268 10.3878 28.8569 10.4476C27.5983 10.5464 27.2698 11.3661 27.276 11.8337C27.2781 12.1158 27.4033 13.0426 28.8672 13.158C29.4339 13.2012 29.7726 13.368 29.7747 13.6028C29.7788 13.9303 29.4688 14.1218 28.9041 14.1424C28.8836 14.1424 28.8631 14.1424 28.8425 14.1424C28.3724 14.1424 28.087 13.9468 27.8468 13.7326C27.7113 13.6111 27.5183 13.5925 27.3643 13.6852C27.0974 13.8479 27.1302 14.1239 27.1918 14.2619C27.3314 14.5708 27.8653 15.0404 28.7645 15.0672C28.8015 15.0672 28.8384 15.0672 28.8754 15.0672C29.4975 15.0672 29.9738 14.9106 30.2921 14.6017C30.6226 14.2804 30.6924 13.8788 30.6924 13.6008C30.6924 13.2506 30.5426 12.9273 30.2715 12.6904L30.2736 12.6946Z" fill="#1D1D1B"/>
<path d="M14.2264 17.4666C14.0683 17.4666 13.9226 17.5202 13.8117 17.5799V17.1597V16.2185C13.8117 15.7057 13.6105 15.2279 13.2409 14.8716C12.8673 14.5111 12.3745 14.332 11.8407 14.3423C11.5101 14.3546 11.2001 14.4597 10.925 14.6224V12.8017C10.925 12.5237 10.7012 12.2971 10.422 12.2971C10.1427 12.2971 9.91895 12.5216 9.91895 12.8017V18.7559C9.91895 19.0339 10.1427 19.2605 10.422 19.2605C10.7012 19.2605 10.925 19.036 10.925 18.7559V16.305C10.925 15.8705 11.3151 15.37 11.8776 15.3494C12.1487 15.3411 12.3663 15.4277 12.5429 15.5965C12.7112 15.7613 12.8057 15.9817 12.8057 16.2165V17.1288C12.8057 17.5222 12.779 17.9836 13.0664 18.2719C13.2697 18.4758 13.6002 18.552 13.978 18.4737C14.1628 18.4346 14.6535 18.3028 14.6535 17.8744C14.6535 17.7261 14.5365 17.4666 14.2264 17.4625V17.4666Z" fill="#1D1D1B"/>
<path d="M15.1338 12.5711C15.1338 12.2539 15.3904 11.9944 15.7087 11.9944C16.0269 11.9944 16.2835 12.2518 16.2835 12.5711C16.2835 12.8903 16.0269 13.1477 15.7087 13.1477C15.3904 13.1477 15.1338 12.8903 15.1338 12.5711Z" fill="#1D1D1B"/>
<path d="M16.6222 16.8756C16.4641 16.8756 16.3204 16.9291 16.2095 16.9888V16.7623C16.2095 16.7623 16.2095 16.7582 16.2095 16.7561V14.3361C16.2095 14.0581 15.9857 13.8315 15.7065 13.8315C15.4272 13.8315 15.2034 14.056 15.2034 14.3361V16.5625C15.2034 16.5625 15.2034 16.5687 15.2034 16.5708C15.2034 16.9621 15.1829 17.3905 15.4683 17.6788C15.6716 17.8827 16.0001 17.9568 16.3737 17.8786C16.5585 17.8394 17.0451 17.7076 17.0451 17.2834C17.0451 17.1351 16.9281 16.8776 16.6201 16.8756H16.6222Z" fill="#1D1D1B"/>
<path d="M21.9934 15.5491C21.8353 15.5491 21.6916 15.6027 21.5807 15.6624V15.5594C21.5807 15.5594 21.5807 15.5553 21.5807 15.5532V14.4658C21.5807 13.3907 20.7082 12.5154 19.6364 12.5154C18.5647 12.5154 17.688 13.3907 17.688 14.4658V16.9167C17.688 17.1947 17.9118 17.4213 18.191 17.4213C18.4702 17.4213 18.694 17.1968 18.694 16.9167V14.4658C18.694 13.9468 19.117 13.5225 19.6364 13.5225C20.1559 13.5225 20.5768 13.9468 20.5768 14.4658C20.5768 14.4658 20.5768 15.2422 20.5768 15.2464C20.5768 15.6377 20.5562 16.0661 20.8416 16.3544C21.0428 16.5583 21.3734 16.6324 21.747 16.5542C21.9318 16.515 22.4184 16.3832 22.4184 15.959C22.4184 15.8107 22.3014 15.5532 21.9934 15.5512V15.5491Z" fill="#1D1D1B"/>
<path d="M8.14286 18.7888C7.96424 18.9123 7.52897 19.1121 7.29697 19.0277C7.15941 18.9803 7.11629 18.8258 7.11629 18.3933V16.5459L8.68284 16.1484C8.9518 16.0804 9.11605 15.8065 9.0483 15.5367C8.98054 15.2669 8.70542 15.1042 8.43851 15.1701L7.11834 15.5038V13.8664C7.11834 13.5884 6.89455 13.3618 6.61532 13.3618C6.3361 13.3618 6.1123 13.5863 6.1123 13.8664V18.3913V18.3954C6.1123 18.7785 6.1123 19.6744 6.96436 19.9751C7.11629 20.0286 7.27233 20.0513 7.42221 20.0513C8.05663 20.0513 8.63356 19.6702 8.71158 19.6167C8.93948 19.4602 8.99902 19.1451 8.84298 18.9165C8.68694 18.6878 8.37487 18.6281 8.14492 18.7846L8.14286 18.7888Z" fill="#1D1D1B"/>
<path d="M26.7095 13.6173C26.7095 13.6173 26.7095 13.6112 26.7095 13.6071C26.7053 12.3898 25.7178 11.4033 24.5044 11.4033C23.291 11.4033 22.2993 12.396 22.2993 13.6153C22.2993 14.8345 23.2889 15.8273 24.5044 15.8273C24.9458 15.8273 25.3544 15.6934 25.7014 15.4689L25.6973 17.03C25.6973 18.171 25.4037 18.8507 24.8288 19.0484C24.3483 19.2132 23.8453 19.1493 23.1842 18.8466C22.3773 18.4038 20.5028 18.0145 19.1806 19.7219C18.5975 20.4777 17.8481 20.7249 16.8195 20.4942C16.7168 20.4716 16.5936 20.4324 16.454 20.3892C15.721 20.1647 14.4933 19.7878 13.1649 20.3603C11.1384 21.2336 11.198 23.3323 11.2 23.4003V27.4597C11.2 27.6924 11.1507 28.0034 10.9105 28.1599C10.6621 28.3247 10.2474 28.3082 9.80183 28.1167C9.54929 28.0075 9.25159 28.1249 9.14072 28.3823C9.0319 28.6377 9.14893 28.9343 9.40557 29.0455C9.77309 29.2041 10.1385 29.2824 10.4773 29.2824C10.8448 29.2824 11.1836 29.1897 11.4649 29.0043C11.9433 28.6892 12.2061 28.1414 12.2061 27.4617V25.5463L13.6782 25.1612C13.9471 25.0912 14.1073 24.8152 14.0375 24.5474C13.9677 24.2776 13.6905 24.119 13.4256 24.187L12.2061 24.5062V23.3858C12.2061 23.3241 12.1814 21.8844 13.5632 21.2892C14.5507 20.8629 15.4829 21.1471 16.1604 21.3551C16.3308 21.4066 16.4807 21.4519 16.6018 21.4787C18.0123 21.7897 19.1498 21.4087 19.9751 20.3398C21.0756 18.9145 22.5395 19.6436 22.7346 19.7445C23.6708 20.175 24.4161 20.2533 25.1552 20.002C25.8615 19.759 26.7033 19.0484 26.7033 17.0342L26.7136 13.6153L26.7095 13.6173ZM24.5023 14.8201C23.8412 14.8201 23.3012 14.2805 23.3012 13.6153C23.3012 12.9501 23.8392 12.4104 24.5023 12.4104C25.1655 12.4104 25.7034 12.9501 25.7034 13.6153C25.7034 14.2805 25.1655 14.8201 24.5023 14.8201Z" fill="#1D1D1B"/>
<path d="M16.1685 26.9921C16.0105 26.9921 15.8647 27.0456 15.7538 27.1053V22.77C15.7538 22.4919 15.53 22.2654 15.2528 22.2654C14.9757 22.2654 14.7498 22.4899 14.7498 22.77V26.6502C14.7498 27.0436 14.7211 27.5111 15.0085 27.7994C15.2118 28.0033 15.5423 28.0795 15.9201 28.0013C16.1049 27.9621 16.5956 27.8303 16.5956 27.4019C16.5956 27.2536 16.4786 26.9941 16.1685 26.99V26.9921Z" fill="#1D1D1B"/>
</g>
<defs>
<clipPath id="clip0_5001_4973">
<rect width="120" height="37" fill="white" transform="translate(0 0.5)"/>
</clipPath>
</defs>
</svg>
